<svg xmlns="http://www.w3.org/2000/svg" version="1.1" xmlns:xlink="http://www.w3.org/1999/xlink" xmlns:svgjs="http://svgjs.dev/svgjs" width="1500" height="1500" viewBox="0 0 1500 1500"><rect width="1500" height="1500" fill="#efefef"></rect><g transform="matrix(0.6666666666666666,0,0,0.6666666666666666,249.39421742447303,642.7807960855204)"><svg viewBox="0 0 396 85" data-background-color="#efefef" preserveAspectRatio="xMidYMid meet" height="321" width="1500" xmlns="http://www.w3.org/2000/svg" xmlns:xlink="http://www.w3.org/1999/xlink"><g id="tight-bounds" transform="matrix(1,0,0,1,0.23988989990868959,0.08706697537743935)"><svg viewBox="0 0 395.52 84.82564584906247" height="84.82564584906247" width="395.52"><g><svg viewBox="0 0 532.907925676313 114.29070331102707" height="84.82564584906247" width="395.52"><g transform="matrix(1,0,0,1,0,32.68583187662254)"><svg viewBox="0 0 395.52 48.919039557782" height="48.919039557782" width="395.52"><g id="textblocktransform"><svg viewBox="0 0 395.52 48.919039557782" height="48.919039557782" width="395.52" id="textblock"><g><svg viewBox="0 0 395.52 48.919039557782" height="48.919039557782" width="395.52"><g transform="matrix(1,0,0,1,0,0)"><svg width="395.52" viewBox="0 -35.8 289.43 35.8" height="48.919039557782" data-palette-color="#d94e28"><g class="wordmark-text-0" data-fill-palette-color="primary" id="text-0"><path d="M40.35-2.15L52.4-2.15 52.4 0 33.75 0 26.4-23.95 26-23.95 18.65 0 0 0 0-2.15 12.05-2.15 0.6-34.95 6.95-34.95 15.75-9.8 23.55-34.95 28.85-34.95 36.65-9.8 45.45-34.95 51.8-34.95 40.35-2.15ZM82.95-2.15L94.4-2.15 94.4 0 52.4 0 52.4-2.15 63.85-2.15Q59.75-4.5 57.37-8.6 55-12.7 55-17.75L55-17.75Q55-25.45 60.3-30.63 65.6-35.8 73.4-35.8 81.2-35.8 86.5-30.63 91.8-25.45 91.8-17.75L91.8-17.75Q91.8-12.75 89.42-8.6 87.05-4.45 82.95-2.15L82.95-2.15ZM82.17-26.7Q78.6-30.4 73.4-30.4 68.2-30.4 64.62-26.7 61.05-23 61.05-17.73 61.05-12.45 64.62-8.75 68.2-5.05 73.4-5.05 78.6-5.05 82.17-8.75 85.75-12.45 85.75-17.73 85.75-23 82.17-26.7ZM127.2-2.15L132.05-2.15 132.05 0 121.25 0 112.9-11.75 105.15-11.75 105.15 0 94.4 0 94.4-2.15 99.25-2.15 99.25-34.95 112.25-34.95Q120.25-34.95 123.7-32.25 127.15-29.55 127.15-23.6L127.15-23.6Q127.15-14.95 119.6-12.7L119.6-12.7 127.2-2.15ZM112.5-17.1Q117.5-17.1 119.3-18.65 121.1-20.2 121.1-23.63 121.1-27.05 119.25-28.33 117.4-29.6 112.65-29.6L112.65-29.6 105.15-29.6 105.15-17.1 112.5-17.1ZM130.79-2.15L135.64-2.15 135.64-34.95 141.54-34.95 141.54-17.9 157.54-34.95 165.04-34.95 150.99-19.65 163.69-2.1 163.69-2.15 168.54-2.15 168.54 0 158.24 0 146.64-15.3 141.54-9.8 141.54 0 130.79 0 130.79-2.15ZM192.69-2.15L197.54-2.15 197.54 0 165.99 0 165.99-2.15 170.84-2.15 170.84-34.95 176.74-34.95 176.74-5.6 192.69-5.6 192.69-2.15ZM194.29-2.15L199.14-2.15 199.14-34.95 205.04-34.95 205.04-2.15 209.89-2.15 209.89 0 194.29 0 194.29-2.15ZM209.89-2.15L214.74-2.15 214.74-34.95 220.64-34.95 240.94-8.85 240.94-34.95 246.84-34.95 246.84-2.15 251.69-2.15 251.69 0 240.44 0 220.64-25.5 220.64 0 209.89 0 209.89-2.15ZM251.68-2.15L256.53-2.15 256.53-34.95 262.43-34.95 262.43-17.9 278.43-34.95 285.93-34.95 271.88-19.65 284.58-2.1 284.58-2.15 289.43-2.15 289.43 0 279.13 0 267.53-15.3 262.43-9.8 262.43 0 251.68 0 251.68-2.15Z" fill="#d94e28" data-fill-palette-color="primary"></path></g></svg></g></svg></g></svg></g></svg></g><g transform="matrix(1,0,0,1,418.6172223652859,0)"><svg viewBox="0 0 114.29070331102707 114.29070331102707" height="114.29070331102707" width="114.29070331102707"><g><svg></svg></g><g id="icon-0"><svg viewBox="0 0 114.29070331102707 114.29070331102707" height="114.29070331102707" width="114.29070331102707"><g><path d="M0 57.145c0-31.561 25.585-57.145 57.145-57.145 31.561 0 57.145 25.585 57.146 57.145 0 31.561-25.585 57.145-57.146 57.146-31.561 0-57.145-25.585-57.145-57.146zM57.145 109.879c29.124 0 52.734-23.61 52.734-52.734 0-29.124-23.61-52.734-52.734-52.733-29.124 0-52.734 23.61-52.733 52.733 0 29.124 23.61 52.734 52.733 52.734z" data-fill-palette-color="accent" fill="#f9744c" stroke="transparent"></path></g><g transform="matrix(1,0,0,1,28.498600854021998,28.498890285306366)"><svg viewBox="0 0 57.29350160298308 57.29292274041434" height="57.29292274041434" width="57.29350160298308"><g><svg xmlns="http://www.w3.org/2000/svg" xmlns:xlink="http://www.w3.org/1999/xlink" version="1.1" x="0" y="0" viewBox="0.5120000000000002 0.01200000000000001 98.976 98.975" enable-background="new 0 0 100 100" xml:space="preserve" height="57.29292274041434" width="57.29350160298308" class="icon-cg-0" data-fill-palette-color="accent" id="cg-0"><g fill="#f9744c" data-fill-palette-color="accent"><path fill="#f9744c" d="M75.2 1.896c-1.206-1.206-2.843-1.884-4.55-1.884-1.706 0-3.343 0.678-4.551 1.886L44.05 23.949c-2.513 2.513-2.513 6.587 0.001 9.101 2.512 2.512 6.586 2.513 9.1-0.001l17.5-17.501L83.952 28.85l-17.501 17.5c-2.514 2.514-2.514 6.587-0.001 9.1 1.257 1.257 2.903 1.886 4.551 1.886 1.646 0 3.294-0.629 4.55-1.885L97.602 33.4c1.208-1.208 1.886-2.845 1.886-4.551 0-1.707-0.678-3.344-1.884-4.55L75.2 1.896z" data-fill-palette-color="accent"></path><path fill="#f9744c" d="M29.35 98.987c1.706 0 3.343-0.678 4.551-1.886l22.05-22.051c2.513-2.513 2.513-6.587-0.001-9.101-2.512-2.512-6.586-2.513-9.1 0.001l-17.5 17.501L16.048 70.15l17.501-17.5c2.514-2.514 2.514-6.587 0.001-9.1s-6.588-2.514-9.101-0.001L2.398 65.6c-1.208 1.208-1.886 2.845-1.886 4.551 0 1.707 0.678 3.344 1.884 4.55L24.8 97.104C26.006 98.31 27.643 98.987 29.35 98.987z" data-fill-palette-color="accent"></path><path fill="#f9744c" d="M29.349 70.151c1.257 1.256 2.904 1.885 4.551 1.885s3.294-0.629 4.55-1.885l32.902-32.902c2.513-2.513 2.513-6.587 0-9.101-2.514-2.512-6.589-2.512-9.101 0L29.349 61.051C26.836 63.564 26.836 67.638 29.349 70.151z" data-fill-palette-color="accent"></path></g></svg></g></svg></g></svg></g></svg></g></svg></g><defs></defs></svg><rect width="395.52" height="84.82564584906247" fill="none" stroke="none" visibility="hidden"></rect></g></svg></g></svg>